<svg xmlns="http://www.w3.org/2000/svg" width="100%" viewBox="0 0 149 40" fill="none"><path d="M30.9588 19.4369C32.4248 19.4369 33.6133 18.2564 33.6133 16.8002C33.6133 15.3441 32.4248 14.1636 30.9588 14.1636C29.4928 14.1636 28.3043 15.3441 28.3043 16.8002C28.3043 18.2564 29.4928 19.4369 30.9588 19.4369Z" fill="#3374FE"></path><path d="M12.1774 25.5175C10.1978 30.2075 16.5521 33.8212 19.619 29.7555C21.496 27.0485 26.113 27.0432 27.9959 29.7502C29.1742 31.2592 31.6384 31.6642 33.2619 30.5342C34.66 29.6419 35.358 27.8425 34.9251 26.2485C34.0892 22.9979 29.7453 22.2105 27.8093 24.9602C26.2274 28.0972 21.6175 26.2012 22.8615 22.8742C22.9041 22.7325 26.7855 14.2945 26.7855 14.2945C26.9798 13.8072 27.0858 13.2762 27.0862 12.7202C27.1633 8.21186 20.7013 6.83053 18.873 10.8855C18.7693 11.0049 12.2727 25.3872 12.1774 25.5179V25.5175Z" fill="#000"></path><path d="M59.8018 27.9998H47.0526V12.3801H50.491V25.3198H59.8015V27.9998H59.8018Z" fill="#000"></path><path d="M60.6633 22.4672C60.6761 19.0972 63.3252 16.7275 66.9549 16.7275C70.3171 16.7275 72.8773 18.7635 72.8773 22.1105C72.8773 22.5132 72.839 22.9272 72.7625 23.3642H63.9239C64.1658 24.6639 65.6303 25.5725 67.1844 25.5725C68.3942 25.5725 69.4385 25.0665 70.2282 24.0199L72.5464 25.5842C71.3997 27.3095 69.26 28.2412 67.1079 28.2412C63.1849 28.2412 60.6633 25.6879 60.6633 22.4672ZM69.8335 21.3862C69.6677 20.1555 68.5469 19.2122 66.9931 19.2122C65.4394 19.2122 64.1531 20.1322 63.9745 21.3862H69.8335Z" fill="#000"></path><path d="M75.2801 23.9627V16.958H78.5406V23.2037C78.5406 24.7333 79.636 25.55 81.0622 25.55C82.4884 25.55 83.8006 24.7333 83.8006 23.2037V16.958H87.0611V28H83.9536L83.8902 26.7807C83.2529 27.5627 81.9411 28.2873 80.0947 28.2873C77.2671 28.2873 75.2804 26.6197 75.2804 23.9627H75.2801Z" fill="#000"></path><path d="M89.6039 22.4558C89.6039 19.2238 92.4946 16.6931 96.125 16.6931C98.4173 16.6931 100.685 17.7744 101.805 19.8448L99.3217 21.2711C98.6083 19.9944 97.3599 19.4078 96.1756 19.4078C94.2145 19.4078 92.8516 20.7651 92.8516 22.5134C92.8516 24.2618 94.2527 25.5614 96.125 25.5614C97.4495 25.5614 98.5576 24.9978 99.3855 23.6521L101.741 25.1474C100.62 27.1604 98.3408 28.2298 96.0481 28.2298C92.3802 28.2298 89.6039 25.6764 89.6039 22.4558Z" fill="#000"></path><path d="M105.723 11.7129C106.831 11.7129 107.608 12.4029 107.608 13.4152C107.608 14.4276 106.831 15.1059 105.723 15.1059C104.615 15.1059 103.851 14.4159 103.851 13.4152C103.851 12.4146 104.615 11.7129 105.723 11.7129ZM104.106 27.9999V16.9579H107.379V27.9999H104.106Z" fill="#000"></path><path d="M110.825 27.9998V16.9578H113.933L113.997 18.2344C114.633 17.4638 115.945 16.7278 117.767 16.7278C120.594 16.7278 122.593 18.4071 122.593 21.0641V27.9998H119.333V21.8231C119.333 20.2935 118.237 19.4651 116.798 19.4651C115.359 19.4651 114.085 20.2931 114.085 21.8231V27.9998H110.825H110.825Z" fill="#000"></path><path d="M124.984 22.4672C124.996 19.0972 127.646 16.7275 131.275 16.7275C134.638 16.7275 137.198 18.7635 137.198 22.1105C137.198 22.5132 137.159 22.9272 137.083 23.3642H128.244C128.486 24.6639 129.951 25.5725 131.504 25.5725C132.715 25.5725 133.759 25.0665 134.549 24.0199L136.867 25.5842C135.721 27.3095 133.581 28.2412 131.428 28.2412C127.506 28.2412 124.984 25.6879 124.984 22.4672ZM134.154 21.3862C133.988 20.1555 132.867 19.2122 131.314 19.2122C129.76 19.2122 128.473 20.1322 128.295 21.3862H134.154Z" fill="#000"></path></svg>